name analog
datacolumns 19
datarows 64
range 0.191 0.2225
endheader
time	ground_force_vx	ground_force_vy	ground_force_vz	ground_force_px	ground_force_py	ground_force_pz	l_ground_force_vx	l_ground_force_vy	l_ground_force_vz	l_ground_force_px	l_ground_force_py	l_ground_force_pz	ground_torque_x	ground_torque_y	ground_torque_z	l_ground_torque_x	l_ground_torque_y	l_ground_torque_z
0.191	-0.0	-0.0	-0.0	-0.0	-0.0	-0.0	-6.5695481300354	7.340556621551514	-644.0198974609375	-0.0	-0.0	-0.0	-0.0	-0.0	-0.0	180445.8125	-5793.958984375	-2831.585693359375
0.1915	-0.0	-0.0	-0.0	-0.0	-0.0	-0.0	-6.653308868408203	7.325896739959717	-641.37255859375	-0.0	-0.0	-0.0	-0.0	-0.0	-0.0	180441.109375	-5547.345703125	-2775.652099609375
0.192	-0.0	-0.0	-0.0	-0.0	-0.0	-0.0	-7.017491817474365	7.168004989624023	-642.4573364257812	-0.0	-0.0	-0.0	-0.0	-0.0	-0.0	180353.390625	-5435.8623046875	-2852.47998046875
0.1925	-0.0	-0.0	-0.0	-0.0	-0.0	-0.0	-7.026276588439941	6.935507774353027	-641.9419555664062	-0.0	-0.0	-0.0	-0.0	-0.0	-0.0	180334.578125	-5500.45703125	-2733.842041015625
0.193	-0.0	-0.0	-0.0	-0.0	-0.0	-0.0	-7.125796794891357	6.796382904052734	-640.6759033203125	-0.0	-0.0	-0.0	-0.0	-0.0	-0.0	180278.5625	-5549.7197265625	-2735.3798828125
0.1935	-0.0	-0.0	-0.0	-0.0	-0.0	-0.0	-7.236306190490723	6.788071155548096	-641.1093139648438	-0.0	-0.0	-0.0	-0.0	-0.0	-0.0	179876.734375	-5439.52783203125	-2671.764404296875
0.194	-0.0	-0.0	-0.0	-0.0	-0.0	-0.0	-6.429469108581543	6.624126434326172	-639.1463623046875	-0.0	-0.0	-0.0	-0.0	-0.0	-0.0	179585.84375	-5359.6875	-2555.376953125
0.1945	-0.0	-0.0	-0.0	-0.0	-0.0	-0.0	-5.905245304107666	7.288523197174072	-638.0197143554688	-0.0	-0.0	-0.0	-0.0	-0.0	-0.0	179488.34375	-5693.453125	-2327.64404296875
0.195	-0.0	-0.0	-0.0	-0.0	-0.0	-0.0	-5.110447406768799	7.207752227783203	-638.2642211914062	-0.0	-0.0	-0.0	-0.0	-0.0	-0.0	179320.671875	-5879.51806640625	-1976.384033203125
0.1955	-0.0	-0.0	-0.0	-0.0	-0.0	-0.0	-3.860765218734741	7.154056549072266	-638.2782592773438	-0.0	-0.0	-0.0	-0.0	-0.0	-0.0	179025.34375	-6538.775390625	-1765.3218994140625
0.196	-0.0	-0.0	-0.0	-0.0	-0.0	-0.0	-3.378084659576416	6.980935096740723	-638.4446411132812	-0.0	-0.0	-0.0	-0.0	-0.0	-0.0	178784.375	-6921.51806640625	-1437.56103515625
0.1965	-0.0	-0.0	-0.0	-0.0	-0.0	-0.0	-2.306480407714844	6.7617058753967285	-637.0203857421875	-0.0	-0.0	-0.0	-0.0	-0.0	-0.0	178322.9375	-7062.748046875	-1362.1861572265625
0.197	-0.0	-0.0	-0.0	-0.0	-0.0	-0.0	-1.682218313217163	6.136721134185791	-638.2750854492188	-0.0	-0.0	-0.0	-0.0	-0.0	-0.0	178231.34375	-7435.115234375	-934.6044921875
0.1975	-0.0	-0.0	-0.0	-0.0	-0.0	-0.0	-1.1595042943954468	5.780393123626709	-637.0332641601562	-0.0	-0.0	-0.0	-0.0	-0.0	-0.0	177487.34375	-7729.5546875	-918.9415893554688
0.198	-0.0	-0.0	-0.0	-0.0	-0.0	-0.0	-0.981806457042694	5.649607181549072	-638.0215454101562	-0.0	-0.0	-0.0	-0.0	-0.0	-0.0	177301.75	-8066.4130859375	-726.5328979492188
0.1985	-0.0	-0.0	-0.0	-0.0	-0.0	-0.0	-0.5408751964569092	5.515819072723389	-636.6723022460938	-0.0	-0.0	-0.0	-0.0	-0.0	-0.0	176711.765625	-8427.0390625	-620.96875
0.199	-0.0	-0.0	-0.0	-0.0	-0.0	-0.0	-0.0457132011651992	4.731969356536865	-637.2230834960938	-0.0	-0.0	-0.0	-0.0	-0.0	-0.0	176189.21875	-8735.6826171875	-237.9590759277344
0.1995	-0.0	-0.0	-0.0	-0.0	-0.0	-0.0	0.6614443063735962	4.590147972106934	-636.68310546875	-0.0	-0.0	-0.0	-0.0	-0.0	-0.0	175804.609375	-9285.4794921875	93.22772216796876
0.2	-0.0	-0.0	-0.0	-0.0	-0.0	-0.0	1.1508036851882937	3.5661120414733887	-636.154296875	-0.0	-0.0	-0.0	-0.0	-0.0	-0.0	175334.53125	-9954.9228515625	298.3646240234375
0.2005	-0.0	-0.0	-0.0	-0.0	-0.0	-0.0	1.548993468284607	2.429989814758301	-638.06103515625	-0.0	-0.0	-0.0	-0.0	-0.0	-0.0	174933.109375	-10111.455078125	507.5436096191406
0.201	-0.0	-0.0	-0.0	-0.0	-0.0	-0.0	2.1334030628204346	0.9241337776184082	-638.7771606445312	-0.0	-0.0	-0.0	-0.0	-0.0	-0.0	174559.671875	-10627.787109375	755.642822265625
0.2015	-0.0	-0.0	-0.0	-0.0	-0.0	-0.0	2.6139416694641118	-0.7557561993598938	-637.5587768554688	-0.0	-0.0	-0.0	-0.0	-0.0	-0.0	174088.09375	-11010.0029296875	1114.406005859375
0.202	-0.0	-0.0	-0.0	-0.0	-0.0	-0.0	2.1724677085876465	-2.162939071655273	-639.296630859375	-0.0	-0.0	-0.0	-0.0	-0.0	-0.0	173637.546875	-11292.5224609375	1262.0338134765625
0.2025	-0.0	-0.0	-0.0	-0.0	-0.0	-0.0	2.351712226867676	-3.051461696624756	-639.4608154296875	-0.0	-0.0	-0.0	-0.0	-0.0	-0.0	173224.734375	-11167.46484375	1321.8265380859375
0.203	-0.0	-0.0	-0.0	-0.0	-0.0	-0.0	2.306480407714844	-4.241032600402832	-638.4395141601562	-0.0	-0.0	-0.0	-0.0	-0.0	-0.0	172792.890625	-11549.91796875	1336.51416015625
0.20350000000000001	-0.0	-0.0	-0.0	-0.0	-0.0	-0.0	2.1275856494903564	-4.818665504455566	-638.06591796875	-0.0	-0.0	-0.0	-0.0	-0.0	-0.0	172562.890625	-11559.783203125	1245.686279296875
0.20400000000000001	-0.0	-0.0	-0.0	-0.0	-0.0	-0.0	2.5275981426239014	-5.07652759552002	-638.4210815429688	-0.0	-0.0	-0.0	-0.0	-0.0	-0.0	172213.84375	-11887.318359375	1335.8310546875
0.20450000000000002	-0.0	-0.0	-0.0	-0.0	-0.0	-0.0	2.7949795722961426	-5.74208402633667	-637.1970825195312	-0.0	-0.0	-0.0	-0.0	-0.0	-0.0	171822.015625	-12161.9306640625	1454.0675048828125
0.20500000000000002	-0.0	-0.0	-0.0	-0.0	-0.0	-0.0	2.929567337036133	-6.313424110412598	-638.4133911132812	-0.0	-0.0	-0.0	-0.0	-0.0	-0.0	171820.1875	-12124.013671875	1498.6904296875
0.20550000000000002	-0.0	-0.0	-0.0	-0.0	-0.0	-0.0	3.0609726905822754	-6.443894386291504	-637.3709716796875	-0.0	-0.0	-0.0	-0.0	-0.0	-0.0	171529.3125	-12320.4208984375	1425.61962890625
0.20600000000000002	-0.0	-0.0	-0.0	-0.0	-0.0	-0.0	3.2383244037628174	-6.049656391143799	-636.3303833007812	-0.0	-0.0	-0.0	-0.0	-0.0	-0.0	171474.71875	-12455.7001953125	1468.5
0.20650000000000002	-0.0	-0.0	-0.0	-0.0	-0.0	-0.0	3.23826265335083	-5.475309371948242	-635.1017456054688	-0.0	-0.0	-0.0	-0.0	-0.0	-0.0	171013.625	-12574.2763671875	1305.916748046875
0.20700000000000002	-0.0	-0.0	-0.0	-0.0	-0.0	-0.0	3.416574001312256	-4.900650024414063	-633.361083984375	-0.0	-0.0	-0.0	-0.0	-0.0	-0.0	170914.0	-12709.7099609375	1365.5692138671875
0.20750000000000002	-0.0	-0.0	-0.0	-0.0	-0.0	-0.0	4.0810546875	-4.284137725830078	-634.0607299804688	-0.0	-0.0	-0.0	-0.0	-0.0	-0.0	170748.578125	-12992.896484375	1559.3564453125
0.20800000000000002	-0.0	-0.0	-0.0	-0.0	-0.0	-0.0	4.435130596160889	-3.1795806884765625	-634.5826416015625	-0.0	-0.0	-0.0	-0.0	-0.0	-0.0	170984.046875	-13176.85546875	1500.551513671875
0.2085	-0.0	-0.0	-0.0	-0.0	-0.0	-0.0	4.169535636901856	-2.5611367225646973	-634.2343139648438	-0.0	-0.0	-0.0	-0.0	-0.0	-0.0	170851.03125	-13191.6259765625	1366.860595703125
0.209	-0.0	-0.0	-0.0	-0.0	-0.0	-0.0	3.725672721862793	-1.98714816570282	-635.1068115234375	-0.0	-0.0	-0.0	-0.0	-0.0	-0.0	171050.796875	-13361.2744140625	1248.0546875
0.2095	-0.0	-0.0	-0.0	-0.0	-0.0	-0.0	3.992414712905884	-0.972179651260376	-635.453369140625	-0.0	-0.0	-0.0	-0.0	-0.0	-0.0	171555.984375	-13404.9296875	1189.0823974609375
0.21	-0.0	-0.0	-0.0	-0.0	-0.0	-0.0	3.592616319656372	-0.0436513274908065	-637.3729248046875	-0.0	-0.0	-0.0	-0.0	-0.0	-0.0	171803.359375	-13425.822265625	1055.560302734375
0.2105	-0.0	-0.0	-0.0	-0.0	-0.0	-0.0	3.0612435340881348	0.3537656664848327	-638.2472534179688	-0.0	-0.0	-0.0	-0.0	-0.0	-0.0	171847.71875	-13398.2041015625	862.3633422851562
0.211	-0.0	-0.0	-0.0	-0.0	-0.0	-0.0	2.085656881332397	0.4873512387275696	-637.54833984375	-0.0	-0.0	-0.0	-0.0	-0.0	-0.0	171709.171875	-13190.6474609375	431.6294555664063
0.2115	-0.0	-0.0	-0.0	-0.0	-0.0	-0.0	1.286693811416626	0.4408370554447174	-638.2491455078125	-0.0	-0.0	-0.0	-0.0	-0.0	-0.0	171744.0625	-12796.298828125	312.6290588378906
0.212	-0.0	-0.0	-0.0	-0.0	-0.0	-0.0	0.97488933801651	0.3077380657196045	-638.4146118164062	-0.0	-0.0	-0.0	-0.0	-0.0	-0.0	171519.4375	-13105.375	104.12953186035156
0.2125	-0.0	-0.0	-0.0	-0.0	-0.0	-0.0	1.0676462650299072	0.2233901619911193	-637.7315063476562	-0.0	-0.0	-0.0	-0.0	-0.0	-0.0	171292.8125	-13157.23046875	105.50871276855467
0.213	-0.0	-0.0	-0.0	-0.0	-0.0	-0.0	1.2384154796600342	-0.2190441936254501	-636.857177734375	-0.0	-0.0	-0.0	-0.0	-0.0	-0.0	171119.390625	-13062.5	267.4073791503906
0.2135	-0.0	-0.0	-0.0	-0.0	-0.0	-0.0	1.5504391193389893	-0.8397195935249329	-639.9686889648438	-0.0	-0.0	-0.0	-0.0	-0.0	-0.0	171088.90625	-13189.5	239.09323120117188
0.214	-0.0	-0.0	-0.0	-0.0	-0.0	-0.0	1.3321207761764526	-1.8113209009170528	-638.9417114257812	-0.0	-0.0	-0.0	-0.0	-0.0	-0.0	170948.125	-13490.78125	266.4878845214844
0.2145	-0.0	-0.0	-0.0	-0.0	-0.0	-0.0	1.3726189136505127	-2.9114320278167725	-639.296630859375	-0.0	-0.0	-0.0	-0.0	-0.0	-0.0	170441.8125	-13692.3955078125	326.00653076171875
0.215	-0.0	-0.0	-0.0	-0.0	-0.0	-0.0	0.9758186340332032	-4.10084867477417	-638.5914306640625	-0.0	-0.0	-0.0	-0.0	-0.0	-0.0	170180.640625	-13833.0078125	312.0042724609375
0.2155	-0.0	-0.0	-0.0	-0.0	-0.0	-0.0	1.1060456037521362	-4.769371032714844	-638.5982666015625	-0.0	-0.0	-0.0	-0.0	-0.0	-0.0	169853.84375	-14348.1591796875	369.42626953125
0.216	-0.0	-0.0	-0.0	-0.0	-0.0	-0.0	1.6401258707046509	-5.652587890625	-637.3803100585938	-0.0	-0.0	-0.0	-0.0	-0.0	-0.0	169273.875	-14638.162109375	531.629638671875
0.2165	-0.0	-0.0	-0.0	-0.0	-0.0	-0.0	2.174499988555908	-6.141600131988525	-636.843994140625	-0.0	-0.0	-0.0	-0.0	-0.0	-0.0	168872.203125	-14810.134765625	531.7609252929688
0.217	-0.0	-0.0	-0.0	-0.0	-0.0	-0.0	2.5317013263702397	-6.753180027008057	-635.9751586914062	-0.0	-0.0	-0.0	-0.0	-0.0	-0.0	168539.765625	-15288.6279296875	636.71044921875
0.2175	-0.0	-0.0	-0.0	-0.0	-0.0	-0.0	2.706904172897339	-7.068174839019775	-635.2476196289062	-0.0	-0.0	-0.0	-0.0	-0.0	-0.0	168558.28125	-15624.9423828125	609.4718627929688
0.218	-0.0	-0.0	-0.0	-0.0	-0.0	-0.0	2.359851598739624	-6.757891178131104	-634.9373168945312	-0.0	-0.0	-0.0	-0.0	-0.0	-0.0	168078.75	-15792.0126953125	399.9957275390625
0.2185	-0.0	-0.0	-0.0	-0.0	-0.0	-0.0	2.0457794666290283	-6.484884262084961	-635.0853881835938	-0.0	-0.0	-0.0	-0.0	-0.0	-0.0	168031.6875	-16070.1787109375	220.92596435546875
0.219	-0.0	-0.0	-0.0	-0.0	-0.0	-0.0	2.177719593048096	-6.003016948699951	-634.9265747070312	-0.0	-0.0	-0.0	-0.0	-0.0	-0.0	167838.859375	-16293.634765625	55.51303863525391
0.2195	-0.0	-0.0	-0.0	-0.0	-0.0	-0.0	1.2908200025558472	-5.558274269104004	-634.7576904296875	-0.0	-0.0	-0.0	-0.0	-0.0	-0.0	167950.609375	-16490.92578125	12.828927040100098
0.22	-0.0	-0.0	-0.0	-0.0	-0.0	-0.0	0.9362086653709412	-4.68734884262085	-635.4683837890625	-0.0	-0.0	-0.0	-0.0	-0.0	-0.0	168265.03125	-16809.4609375	-265.38531494140625
0.2205	-0.0	-0.0	-0.0	-0.0	-0.0	-0.0	0.6308406591415405	-3.981023788452149	-637.2146606445312	-0.0	-0.0	-0.0	-0.0	-0.0	-0.0	168422.890625	-17052.41015625	-596.0426025390625
0.221	-0.0	-0.0	-0.0	-0.0	-0.0	-0.0	0.3616693615913391	-3.2288386821746826	-638.7527465820312	-0.0	-0.0	-0.0	-0.0	-0.0	-0.0	168775.96875	-17034.5	-548.7769775390625
0.2215	-0.0	-0.0	-0.0	-0.0	-0.0	-0.0	0.6281107664108276	-2.865126848220825	-638.7518310546875	-0.0	-0.0	-0.0	-0.0	-0.0	-0.0	169059.46875	-17250.015625	-622.032958984375
0.222	-0.0	-0.0	-0.0	-0.0	-0.0	-0.0	0.5322647094726562	-3.0029373168945312	-641.5734252929688	-0.0	-0.0	-0.0	-0.0	-0.0	-0.0	169224.640625	-17664.05078125	-669.6845092773438
0.2225	-0.0	-0.0	-0.0	-0.0	-0.0	-0.0	0.316235601902008	-3.091259002685547	-640.8904418945312	-0.0	-0.0	-0.0	-0.0	-0.0	-0.0	169398.140625	-17713.970703125	-637.696533203125
